# Blender 4.2.0
# www.blender.org
o Torus
v 0.840000 0.000000 0.000000
v 0.766777 0.176777 0.000000
v 0.590000 0.250000 0.000000
v 0.413223 0.176777 0.000000
v 0.340000 0.000000 0.000000
v 0.413223 -0.176777 0.000000
v 0.590000 -0.250000 0.000000
v 0.766777 -0.176777 0.000000
v 0.789342 0.000000 -0.287297
v 0.720534 0.176777 -0.262253
v 0.554419 0.250000 -0.201792
v 0.388303 0.176777 -0.141331
v 0.319496 0.000000 -0.116287
v 0.388303 -0.176777 -0.141331
v 0.554419 -0.250000 -0.201792
v 0.720534 -0.176777 -0.262253
v 0.643477 0.000000 -0.539942
v 0.587385 0.176777 -0.492875
v 0.451966 0.250000 -0.379245
v 0.316547 0.176777 -0.265615
v 0.260455 0.000000 -0.218548
v 0.316547 -0.176777 -0.265615
v 0.451966 -0.250000 -0.379245
v 0.587385 -0.176777 -0.492875
v 0.420000 0.000000 -0.727461
v 0.383388 0.176777 -0.664048
v 0.295000 0.250000 -0.510955
v 0.206612 0.176777 -0.357862
v 0.170000 0.000000 -0.294449
v 0.206612 -0.176777 -0.357862
v 0.295000 -0.250000 -0.510955
v 0.383388 -0.176777 -0.664048
v 0.145865 0.000000 -0.827239
v 0.133149 0.176777 -0.755128
v 0.102452 0.250000 -0.581037
v 0.071755 0.176777 -0.406946
v 0.059040 0.000000 -0.334835
v 0.071755 -0.176777 -0.406946
v 0.102452 -0.250000 -0.581037
v 0.133149 -0.176777 -0.755128
v -0.145864 0.000000 -0.827239
v -0.133149 0.176777 -0.755128
v -0.102452 0.250000 -0.581037
v -0.071755 0.176777 -0.406946
v -0.059040 0.000000 -0.334835
v -0.071755 -0.176777 -0.406946
v -0.102452 -0.250000 -0.581037
v -0.133149 -0.176777 -0.755128
v -0.420000 0.000000 -0.727461
v -0.383388 0.176777 -0.664048
v -0.295000 0.250000 -0.510955
v -0.206612 0.176777 -0.357862
v -0.170000 0.000000 -0.294449
v -0.206612 -0.176777 -0.357862
v -0.295000 -0.250000 -0.510955
v -0.383388 -0.176777 -0.664048
v -0.643477 0.000000 -0.539942
v -0.587385 0.176777 -0.492875
v -0.451966 0.250000 -0.379245
v -0.316547 0.176777 -0.265615
v -0.260455 0.000000 -0.218548
v -0.316547 -0.176777 -0.265615
v -0.451966 -0.250000 -0.379245
v -0.587385 -0.176777 -0.492875
v -0.789342 0.000000 -0.287297
v -0.720534 0.176777 -0.262253
v -0.554419 0.250000 -0.201792
v -0.388303 0.176777 -0.141331
v -0.319495 0.000000 -0.116287
v -0.388303 -0.176777 -0.141331
v -0.554419 -0.250000 -0.201792
v -0.720534 -0.176777 -0.262253
v -0.840000 0.000000 -0.000000
v -0.766777 0.176777 -0.000000
v -0.590000 0.250000 -0.000000
v -0.413223 0.176777 -0.000000
v -0.340000 0.000000 -0.000000
v -0.413223 -0.176777 -0.000000
v -0.590000 -0.250000 -0.000000
v -0.766777 -0.176777 -0.000000
v -0.789342 0.000000 0.287297
v -0.720535 0.176777 0.262253
v -0.554419 0.250000 0.201792
v -0.388303 0.176777 0.141331
v -0.319496 0.000000 0.116287
v -0.388303 -0.176777 0.141331
v -0.554419 -0.250000 0.201792
v -0.720535 -0.176777 0.262253
v -0.643477 0.000000 0.539941
v -0.587385 0.176777 0.492874
v -0.451966 0.250000 0.379245
v -0.316548 0.176777 0.265615
v -0.260455 0.000000 0.218548
v -0.316548 -0.176777 0.265615
v -0.451966 -0.250000 0.379245
v -0.587385 -0.176777 0.492874
v -0.420000 0.000000 0.727461
v -0.383388 0.176777 0.664048
v -0.295000 0.250000 0.510955
v -0.206612 0.176777 0.357862
v -0.170000 0.000000 0.294449
v -0.206612 -0.176777 0.357862
v -0.295000 -0.250000 0.510955
v -0.383388 -0.176777 0.664048
v -0.145864 0.000000 0.827239
v -0.133149 0.176777 0.755128
v -0.102452 0.250000 0.581037
v -0.071755 0.176777 0.406946
v -0.059040 0.000000 0.334835
v -0.071755 -0.176777 0.406946
v -0.102452 -0.250000 0.581037
v -0.133149 -0.176777 0.755128
v 0.145865 0.000000 0.827239
v 0.133149 0.176777 0.755128
v 0.102452 0.250000 0.581037
v 0.071755 0.176777 0.406946
v 0.059040 0.000000 0.334835
v 0.071755 -0.176777 0.406946
v 0.102452 -0.250000 0.581037
v 0.133149 -0.176777 0.755128
v 0.420000 0.000000 0.727461
v 0.383388 0.176777 0.664048
v 0.295000 0.250000 0.510955
v 0.206612 0.176777 0.357862
v 0.170000 0.000000 0.294449
v 0.206612 -0.176777 0.357862
v 0.295000 -0.250000 0.510955
v 0.383388 -0.176777 0.664048
v 0.643477 0.000000 0.539942
v 0.587385 0.176777 0.492875
v 0.451966 0.250000 0.379245
v 0.316547 0.176777 0.265615
v 0.260455 0.000000 0.218548
v 0.316547 -0.176777 0.265615
v 0.451966 -0.250000 0.379245
v 0.587385 -0.176777 0.492875
v 0.789342 0.000000 0.287297
v 0.720534 0.176777 0.262253
v 0.554419 0.250000 0.201792
v 0.388303 0.176777 0.141331
v 0.319495 0.000000 0.116287
v 0.388303 -0.176777 0.141331
v 0.554419 -0.250000 0.201792
v 0.720534 -0.176777 0.262253
vn 0.9119 0.3777 -0.1608
vn 0.3818 0.9218 -0.0673
vn -0.3818 0.9218 0.0673
vn -0.9119 0.3777 0.1608
vn -0.9119 -0.3777 0.1608
vn -0.3818 -0.9218 0.0673
vn 0.3818 -0.9218 -0.0673
vn 0.9119 -0.3777 -0.1608
vn 0.8019 0.3777 -0.4630
vn 0.3358 0.9218 -0.1939
vn -0.3358 0.9218 0.1939
vn -0.8019 0.3777 0.4630
vn -0.8019 -0.3777 0.4630
vn -0.3358 -0.9218 0.1939
vn 0.3358 -0.9218 -0.1939
vn 0.8019 -0.3777 -0.4630
vn 0.5952 0.3777 -0.7093
vn 0.2492 0.9218 -0.2970
vn -0.2492 0.9218 0.2970
vn -0.5952 0.3777 0.7093
vn -0.5952 -0.3777 0.7093
vn -0.2492 -0.9218 0.2970
vn 0.2492 -0.9218 -0.2970
vn 0.5952 -0.3777 -0.7093
vn 0.3167 0.3777 -0.8701
vn 0.1326 0.9218 -0.3643
vn -0.1326 0.9218 0.3643
vn -0.3167 0.3777 0.8701
vn -0.3167 -0.3777 0.8701
vn -0.1326 -0.9218 0.3643
vn 0.1326 -0.9218 -0.3643
vn 0.3167 -0.3777 -0.8701
vn -0.0000 0.3777 -0.9259
vn -0.0000 0.9218 -0.3877
vn -0.0000 0.9218 0.3877
vn -0.0000 0.3777 0.9259
vn -0.0000 -0.3777 0.9259
vn -0.0000 -0.9218 0.3877
vn -0.0000 -0.9218 -0.3877
vn -0.0000 -0.3777 -0.9259
vn -0.3167 0.3777 -0.8701
vn -0.1326 0.9218 -0.3643
vn 0.1326 0.9218 0.3643
vn 0.3167 0.3777 0.8701
vn 0.3167 -0.3777 0.8701
vn 0.1326 -0.9218 0.3643
vn -0.1326 -0.9218 -0.3643
vn -0.3167 -0.3777 -0.8701
vn -0.5952 0.3777 -0.7093
vn -0.2492 0.9218 -0.2970
vn 0.2492 0.9218 0.2970
vn 0.5952 0.3777 0.7093
vn 0.5952 -0.3777 0.7093
vn 0.2492 -0.9218 0.2970
vn -0.2492 -0.9218 -0.2970
vn -0.5952 -0.3777 -0.7093
vn -0.8019 0.3777 -0.4630
vn -0.3358 0.9218 -0.1939
vn 0.3358 0.9218 0.1939
vn 0.8019 0.3777 0.4630
vn 0.8019 -0.3777 0.4630
vn 0.3358 -0.9218 0.1939
vn -0.3358 -0.9218 -0.1939
vn -0.8019 -0.3777 -0.4630
vn -0.9119 0.3777 -0.1608
vn -0.3818 0.9218 -0.0673
vn 0.3818 0.9218 0.0673
vn 0.9119 0.3777 0.1608
vn 0.9119 -0.3777 0.1608
vn 0.3818 -0.9218 0.0673
vn -0.3818 -0.9218 -0.0673
vn -0.9119 -0.3777 -0.1608
vt 0.500000 0.500000
vt 0.555556 0.500000
vt 0.555556 0.625000
vt 0.500000 0.625000
vt 0.555556 0.750000
vt 0.500000 0.750000
vt 0.555556 0.875000
vt 0.500000 0.875000
vt 0.555556 1.000000
vt 0.500000 1.000000
vt 0.500000 0.000000
vt 0.555556 0.000000
vt 0.555556 0.125000
vt 0.500000 0.125000
vt 0.555556 0.250000
vt 0.500000 0.250000
vt 0.555556 0.375000
vt 0.500000 0.375000
vt 0.611111 0.500000
vt 0.611111 0.625000
vt 0.611111 0.750000
vt 0.611111 0.875000
vt 0.611111 1.000000
vt 0.611111 0.000000
vt 0.611111 0.125000
vt 0.611111 0.250000
vt 0.611111 0.375000
vt 0.666667 0.500000
vt 0.666667 0.625000
vt 0.666667 0.750000
vt 0.666667 0.875000
vt 0.666667 1.000000
vt 0.666667 0.000000
vt 0.666667 0.125000
vt 0.666667 0.250000
vt 0.666667 0.375000
vt 0.722222 0.500000
vt 0.722222 0.625000
vt 0.722222 0.750000
vt 0.722222 0.875000
vt 0.722222 1.000000
vt 0.722222 0.000000
vt 0.722222 0.125000
vt 0.722222 0.250000
vt 0.722222 0.375000
vt 0.777778 0.500000
vt 0.777778 0.625000
vt 0.777778 0.750000
vt 0.777778 0.875000
vt 0.777778 1.000000
vt 0.777778 0.000000
vt 0.777778 0.125000
vt 0.777778 0.250000
vt 0.777778 0.375000
vt 0.833333 0.500000
vt 0.833333 0.625000
vt 0.833333 0.750000
vt 0.833333 0.875000
vt 0.833333 1.000000
vt 0.833333 0.000000
vt 0.833333 0.125000
vt 0.833333 0.250000
vt 0.833333 0.375000
vt 0.888889 0.500000
vt 0.888889 0.625000
vt 0.888889 0.750000
vt 0.888889 0.875000
vt 0.888889 1.000000
vt 0.888889 0.000000
vt 0.888889 0.125000
vt 0.888889 0.250000
vt 0.888889 0.375000
vt 0.944444 0.500000
vt 0.944444 0.625000
vt 0.944444 0.750000
vt 0.944444 0.875000
vt 0.944444 1.000000
vt 0.944444 0.000000
vt 0.944444 0.125000
vt 0.944444 0.250000
vt 0.944444 0.375000
vt 1.000000 0.500000
vt 1.000000 0.625000
vt 1.000000 0.750000
vt 1.000000 0.875000
vt 1.000000 1.000000
vt 1.000000 0.000000
vt 1.000000 0.125000
vt 1.000000 0.250000
vt 1.000000 0.375000
vt 0.000000 0.500000
vt 0.055556 0.500000
vt 0.055556 0.625000
vt 0.000000 0.625000
vt 0.055556 0.750000
vt 0.000000 0.750000
vt 0.055556 0.875000
vt 0.000000 0.875000
vt 0.055556 1.000000
vt 0.000000 1.000000
vt 0.000000 0.000000
vt 0.055556 0.000000
vt 0.055556 0.125000
vt 0.000000 0.125000
vt 0.055556 0.250000
vt 0.000000 0.250000
vt 0.055556 0.375000
vt 0.000000 0.375000
vt 0.111111 0.500000
vt 0.111111 0.625000
vt 0.111111 0.750000
vt 0.111111 0.875000
vt 0.111111 1.000000
vt 0.111111 0.000000
vt 0.111111 0.125000
vt 0.111111 0.250000
vt 0.111111 0.375000
vt 0.166667 0.500000
vt 0.166667 0.625000
vt 0.166667 0.750000
vt 0.166667 0.875000
vt 0.166667 1.000000
vt 0.166667 0.000000
vt 0.166667 0.125000
vt 0.166667 0.250000
vt 0.166667 0.375000
vt 0.222222 0.500000
vt 0.222222 0.625000
vt 0.222222 0.750000
vt 0.222222 0.875000
vt 0.222222 1.000000
vt 0.222222 0.000000
vt 0.222222 0.125000
vt 0.222222 0.250000
vt 0.222222 0.375000
vt 0.277778 0.500000
vt 0.277778 0.625000
vt 0.277778 0.750000
vt 0.277778 0.875000
vt 0.277778 1.000000
vt 0.277778 0.000000
vt 0.277778 0.125000
vt 0.277778 0.250000
vt 0.277778 0.375000
vt 0.333333 0.500000
vt 0.333333 0.625000
vt 0.333333 0.750000
vt 0.333333 0.875000
vt 0.333333 1.000000
vt 0.333333 0.000000
vt 0.333333 0.125000
vt 0.333333 0.250000
vt 0.333333 0.375000
vt 0.388889 0.500000
vt 0.388889 0.625000
vt 0.388889 0.750000
vt 0.388889 0.875000
vt 0.388889 1.000000
vt 0.388889 0.000000
vt 0.388889 0.125000
vt 0.388889 0.250000
vt 0.388889 0.375000
vt 0.444444 0.500000
vt 0.444444 0.625000
vt 0.444444 0.750000
vt 0.444444 0.875000
vt 0.444444 1.000000
vt 0.444444 0.000000
vt 0.444444 0.125000
vt 0.444444 0.250000
vt 0.444444 0.375000
s 0
f 1/1/1 9/2/1 10/3/1 2/4/1
f 2/4/2 10/3/2 11/5/2 3/6/2
f 3/6/3 11/5/3 12/7/3 4/8/3
f 4/8/4 12/7/4 13/9/4 5/10/4
f 5/11/5 13/12/5 14/13/5 6/14/5
f 6/14/6 14/13/6 15/15/6 7/16/6
f 7/16/7 15/15/7 16/17/7 8/18/7
f 8/18/8 16/17/8 9/2/8 1/1/8
f 9/2/9 17/19/9 18/20/9 10/3/9
f 10/3/10 18/20/10 19/21/10 11/5/10
f 11/5/11 19/21/11 20/22/11 12/7/11
f 12/7/12 20/22/12 21/23/12 13/9/12
f 13/12/13 21/24/13 22/25/13 14/13/13
f 14/13/14 22/25/14 23/26/14 15/15/14
f 15/15/15 23/26/15 24/27/15 16/17/15
f 16/17/16 24/27/16 17/19/16 9/2/16
f 17/19/17 25/28/17 26/29/17 18/20/17
f 18/20/18 26/29/18 27/30/18 19/21/18
f 19/21/19 27/30/19 28/31/19 20/22/19
f 20/22/20 28/31/20 29/32/20 21/23/20
f 21/24/21 29/33/21 30/34/21 22/25/21
f 22/25/22 30/34/22 31/35/22 23/26/22
f 23/26/23 31/35/23 32/36/23 24/27/23
f 24/27/24 32/36/24 25/28/24 17/19/24
f 25/28/25 33/37/25 34/38/25 26/29/25
f 26/29/26 34/38/26 35/39/26 27/30/26
f 27/30/27 35/39/27 36/40/27 28/31/27
f 28/31/28 36/40/28 37/41/28 29/32/28
f 29/33/29 37/42/29 38/43/29 30/34/29
f 30/34/30 38/43/30 39/44/30 31/35/30
f 31/35/31 39/44/31 40/45/31 32/36/31
f 32/36/32 40/45/32 33/37/32 25/28/32
f 33/37/33 41/46/33 42/47/33 34/38/33
f 34/38/34 42/47/34 43/48/34 35/39/34
f 35/39/35 43/48/35 44/49/35 36/40/35
f 36/40/36 44/49/36 45/50/36 37/41/36
f 37/42/37 45/51/37 46/52/37 38/43/37
f 38/43/38 46/52/38 47/53/38 39/44/38
f 39/44/39 47/53/39 48/54/39 40/45/39
f 40/45/40 48/54/40 41/46/40 33/37/40
f 41/46/41 49/55/41 50/56/41 42/47/41
f 42/47/42 50/56/42 51/57/42 43/48/42
f 43/48/43 51/57/43 52/58/43 44/49/43
f 44/49/44 52/58/44 53/59/44 45/50/44
f 45/51/45 53/60/45 54/61/45 46/52/45
f 46/52/46 54/61/46 55/62/46 47/53/46
f 47/53/47 55/62/47 56/63/47 48/54/47
f 48/54/48 56/63/48 49/55/48 41/46/48
f 49/55/49 57/64/49 58/65/49 50/56/49
f 50/56/50 58/65/50 59/66/50 51/57/50
f 51/57/51 59/66/51 60/67/51 52/58/51
f 52/58/52 60/67/52 61/68/52 53/59/52
f 53/60/53 61/69/53 62/70/53 54/61/53
f 54/61/54 62/70/54 63/71/54 55/62/54
f 55/62/55 63/71/55 64/72/55 56/63/55
f 56/63/56 64/72/56 57/64/56 49/55/56
f 57/64/57 65/73/57 66/74/57 58/65/57
f 58/65/58 66/74/58 67/75/58 59/66/58
f 59/66/59 67/75/59 68/76/59 60/67/59
f 60/67/60 68/76/60 69/77/60 61/68/60
f 61/69/61 69/78/61 70/79/61 62/70/61
f 62/70/62 70/79/62 71/80/62 63/71/62
f 63/71/63 71/80/63 72/81/63 64/72/63
f 64/72/64 72/81/64 65/73/64 57/64/64
f 65/73/65 73/82/65 74/83/65 66/74/65
f 66/74/66 74/83/66 75/84/66 67/75/66
f 67/75/67 75/84/67 76/85/67 68/76/67
f 68/76/68 76/85/68 77/86/68 69/77/68
f 69/78/69 77/87/69 78/88/69 70/79/69
f 70/79/70 78/88/70 79/89/70 71/80/70
f 71/80/71 79/89/71 80/90/71 72/81/71
f 72/81/72 80/90/72 73/82/72 65/73/72
f 73/91/4 81/92/4 82/93/4 74/94/4
f 74/94/3 82/93/3 83/95/3 75/96/3
f 75/96/2 83/95/2 84/97/2 76/98/2
f 76/98/1 84/97/1 85/99/1 77/100/1
f 77/101/8 85/102/8 86/103/8 78/104/8
f 78/104/7 86/103/7 87/105/7 79/106/7
f 79/106/6 87/105/6 88/107/6 80/108/6
f 80/108/5 88/107/5 81/92/5 73/91/5
f 81/92/12 89/109/12 90/110/12 82/93/12
f 82/93/11 90/110/11 91/111/11 83/95/11
f 83/95/10 91/111/10 92/112/10 84/97/10
f 84/97/9 92/112/9 93/113/9 85/99/9
f 85/102/16 93/114/16 94/115/16 86/103/16
f 86/103/15 94/115/15 95/116/15 87/105/15
f 87/105/14 95/116/14 96/117/14 88/107/14
f 88/107/13 96/117/13 89/109/13 81/92/13
f 89/109/20 97/118/20 98/119/20 90/110/20
f 90/110/19 98/119/19 99/120/19 91/111/19
f 91/111/18 99/120/18 100/121/18 92/112/18
f 92/112/17 100/121/17 101/122/17 93/113/17
f 93/114/24 101/123/24 102/124/24 94/115/24
f 94/115/23 102/124/23 103/125/23 95/116/23
f 95/116/22 103/125/22 104/126/22 96/117/22
f 96/117/21 104/126/21 97/118/21 89/109/21
f 97/118/28 105/127/28 106/128/28 98/119/28
f 98/119/27 106/128/27 107/129/27 99/120/27
f 99/120/26 107/129/26 108/130/26 100/121/26
f 100/121/25 108/130/25 109/131/25 101/122/25
f 101/123/32 109/132/32 110/133/32 102/124/32
f 102/124/31 110/133/31 111/134/31 103/125/31
f 103/125/30 111/134/30 112/135/30 104/126/30
f 104/126/29 112/135/29 105/127/29 97/118/29
f 105/127/36 113/136/36 114/137/36 106/128/36
f 106/128/35 114/137/35 115/138/35 107/129/35
f 107/129/34 115/138/34 116/139/34 108/130/34
f 108/130/33 116/139/33 117/140/33 109/131/33
f 109/132/40 117/141/40 118/142/40 110/133/40
f 110/133/39 118/142/39 119/143/39 111/134/39
f 111/134/38 119/143/38 120/144/38 112/135/38
f 112/135/37 120/144/37 113/136/37 105/127/37
f 113/136/44 121/145/44 122/146/44 114/137/44
f 114/137/43 122/146/43 123/147/43 115/138/43
f 115/138/42 123/147/42 124/148/42 116/139/42
f 116/139/41 124/148/41 125/149/41 117/140/41
f 117/141/48 125/150/48 126/151/48 118/142/48
f 118/142/47 126/151/47 127/152/47 119/143/47
f 119/143/46 127/152/46 128/153/46 120/144/46
f 120/144/45 128/153/45 121/145/45 113/136/45
f 121/145/52 129/154/52 130/155/52 122/146/52
f 122/146/51 130/155/51 131/156/51 123/147/51
f 123/147/50 131/156/50 132/157/50 124/148/50
f 124/148/49 132/157/49 133/158/49 125/149/49
f 125/150/56 133/159/56 134/160/56 126/151/56
f 126/151/55 134/160/55 135/161/55 127/152/55
f 127/152/54 135/161/54 136/162/54 128/153/54
f 128/153/53 136/162/53 129/154/53 121/145/53
f 129/154/60 137/163/60 138/164/60 130/155/60
f 130/155/59 138/164/59 139/165/59 131/156/59
f 131/156/58 139/165/58 140/166/58 132/157/58
f 132/157/57 140/166/57 141/167/57 133/158/57
f 133/159/64 141/168/64 142/169/64 134/160/64
f 134/160/63 142/169/63 143/170/63 135/161/63
f 135/161/62 143/170/62 144/171/62 136/162/62
f 136/162/61 144/171/61 137/163/61 129/154/61
f 137/163/68 1/1/68 2/4/68 138/164/68
f 138/164/67 2/4/67 3/6/67 139/165/67
f 139/165/66 3/6/66 4/8/66 140/166/66
f 140/166/65 4/8/65 5/10/65 141/167/65
f 141/168/72 5/11/72 6/14/72 142/169/72
f 142/169/71 6/14/71 7/16/71 143/170/71
f 143/170/70 7/16/70 8/18/70 144/171/70
f 144/171/69 8/18/69 1/1/69 137/163/69
